<svg xmlns="http://www.w3.org/2000/svg" xmlns:xlink="http://www.w3.org/1999/xlink" width="396" zoomAndPan="magnify" viewBox="0 0 297 107.999999" height="144" preserveAspectRatio="xMidYMid meet" version="1.0"><defs><g/><clipPath id="4d0efc1294"><path d="M 110.179688 0 L 186.316406 0 L 186.316406 45 L 110.179688 45 Z M 110.179688 0 " clip-rule="nonzero"/></clipPath></defs><g clip-path="url(#4d0efc1294)"><path fill="#ffffff" d="M 110.390625 40.894531 C 111.320312 37.800781 111.101562 33.449219 114.789062 32.21875 C 114.808594 27.207031 114.789062 22.199219 114.796875 17.195312 C 113.503906 16.464844 111.0625 16.355469 111.054688 14.449219 C 111.664062 13.628906 112.667969 13.292969 113.570312 12.910156 C 123.847656 8.972656 134.109375 5 144.378906 1.035156 C 147.117188 0.00390625 150.25 0.0195312 153.003906 1.015625 C 162.816406 4.761719 172.601562 8.605469 182.421875 12.34375 C 184.003906 13.007812 186.015625 13.316406 186.679688 15.148438 C 185.757812 15.792969 184.792969 16.382812 183.730469 16.769531 C 179.085938 18.550781 174.441406 20.339844 169.796875 22.132812 C 170.359375 24.472656 170.046875 27.117188 169.835938 29.523438 C 168.566406 32.933594 164.683594 34.175781 161.515625 35.171875 C 153.929688 37.152344 145.878906 37.21875 138.195312 35.722656 C 134.855469 34.953125 131.300781 33.980469 128.792969 31.503906 C 126.582031 29.152344 127.613281 25.632812 127.429688 22.734375 C 127.410156 22.472656 127.457031 22.261719 127.546875 22.085938 C 124.367188 20.859375 121.191406 19.640625 118.015625 18.410156 C 118.007812 23.019531 118.042969 27.621094 118.023438 32.226562 C 121.492188 33.324219 121.453125 37.316406 122.285156 40.226562 C 122.800781 41.75 123.046875 44.066406 121.128906 44.691406 C 118.0625 44.976562 114.9375 44.902344 111.867188 44.734375 C 110.167969 44.332031 109.820312 42.316406 110.390625 40.894531 Z M 130.800781 28.914062 C 132.386719 30.796875 134.902344 31.46875 137.167969 32.152344 C 144.402344 33.9375 152.058594 33.976562 159.339844 32.390625 C 161.890625 31.6875 164.820312 31.0625 166.582031 28.929688 C 167.066406 27.101562 166.726562 25.175781 166.800781 23.289062 C 162.328125 25.015625 157.855469 26.742188 153.382812 28.46875 C 150.414062 29.636719 146.984375 29.640625 144.015625 28.449219 C 139.558594 26.710938 135.09375 24.992188 130.632812 23.273438 C 130.734375 25.148438 130.4375 27.058594 130.800781 28.914062 Z M 119.257812 41.613281 C 118.835938 39.578125 118.34375 37.550781 117.804688 35.546875 C 116.898438 35.503906 115.996094 35.472656 115.085938 35.4375 C 114.496094 37.476562 113.984375 39.539062 113.535156 41.613281 C 115.445312 41.605469 117.351562 41.613281 119.257812 41.613281 Z M 119.257812 41.613281 " fill-opacity="1" fill-rule="nonzero"/></g><g fill="#ffffff" fill-opacity="1"><g transform="translate(22.600322, 78.613466)"><g><path d="M 18.140625 0.640625 C 13.335938 0.640625 9.601562 -0.664062 6.9375 -3.28125 C 4.28125 -5.894531 2.953125 -9.601562 2.953125 -14.40625 L 2.953125 -32.3125 L 12.09375 -32.3125 L 12.09375 -14.671875 C 12.09375 -9.503906 14.140625 -6.921875 18.234375 -6.921875 C 22.296875 -6.921875 24.328125 -9.503906 24.328125 -14.671875 L 24.328125 -32.3125 L 33.328125 -32.3125 L 33.328125 -14.40625 C 33.328125 -9.601562 31.992188 -5.894531 29.328125 -3.28125 C 26.671875 -0.664062 22.941406 0.640625 18.140625 0.640625 Z M 18.140625 0.640625 "/></g></g></g><g fill="#ffffff" fill-opacity="1"><g transform="translate(55.83497, 78.613466)"><g><path d="M 19.109375 -25.4375 C 22.210938 -25.4375 24.710938 -24.507812 26.609375 -22.65625 C 28.503906 -20.8125 29.453125 -18.03125 29.453125 -14.3125 L 29.453125 0 L 20.671875 0 L 20.671875 -12.875 C 20.671875 -16.289062 19.300781 -18 16.5625 -18 C 15.0625 -18 13.851562 -17.503906 12.9375 -16.515625 C 12.03125 -15.535156 11.578125 -14.0625 11.578125 -12.09375 L 11.578125 0 L 2.8125 0 L 2.8125 -25.015625 L 11.171875 -25.015625 L 11.171875 -22.296875 C 12.148438 -23.304688 13.316406 -24.082031 14.671875 -24.625 C 16.023438 -25.164062 17.503906 -25.4375 19.109375 -25.4375 Z M 19.109375 -25.4375 "/></g></g></g><g fill="#ffffff" fill-opacity="1"><g transform="translate(84.915207, 78.613466)"><g><path d="M 2.8125 -25.015625 L 11.578125 -25.015625 L 11.578125 0 L 2.8125 0 Z M 7.203125 -27.78125 C 5.597656 -27.78125 4.300781 -28.226562 3.3125 -29.125 C 2.332031 -30.019531 1.84375 -31.128906 1.84375 -32.453125 C 1.84375 -33.773438 2.332031 -34.878906 3.3125 -35.765625 C 4.300781 -36.660156 5.597656 -37.109375 7.203125 -37.109375 C 8.796875 -37.109375 10.082031 -36.6875 11.0625 -35.84375 C 12.050781 -35 12.546875 -33.914062 12.546875 -32.59375 C 12.546875 -31.207031 12.050781 -30.054688 11.0625 -29.140625 C 10.082031 -28.234375 8.796875 -27.78125 7.203125 -27.78125 Z M 7.203125 -27.78125 "/></g></g></g><g fill="#ffffff" fill-opacity="1"><g transform="translate(96.316119, 78.613466)"><g><path d="M 29.171875 -7.0625 L 29.171875 0 L 3.234375 0 L 3.234375 -32.3125 L 28.578125 -32.3125 L 28.578125 -25.25 L 12.28125 -25.25 L 12.28125 -19.796875 L 26.625 -19.796875 L 26.625 -12.96875 L 12.28125 -12.96875 L 12.28125 -7.0625 Z M 29.171875 -7.0625 "/></g></g></g><g fill="#ffffff" fill-opacity="1"><g transform="translate(124.288511, 78.613466)"><g><path d="M 11.90625 0.421875 C 9.8125 0.421875 7.75 0.179688 5.71875 -0.296875 C 3.6875 -0.773438 2.054688 -1.398438 0.828125 -2.171875 L 3.46875 -8.171875 C 4.601562 -7.460938 5.953125 -6.898438 7.515625 -6.484375 C 9.085938 -6.066406 10.644531 -5.859375 12.1875 -5.859375 C 13.601562 -5.859375 14.609375 -6.003906 15.203125 -6.296875 C 15.804688 -6.585938 16.109375 -7.007812 16.109375 -7.5625 C 16.109375 -8.125 15.742188 -8.519531 15.015625 -8.75 C 14.296875 -8.976562 13.148438 -9.203125 11.578125 -9.421875 C 9.578125 -9.660156 7.878906 -9.976562 6.484375 -10.375 C 5.085938 -10.78125 3.878906 -11.519531 2.859375 -12.59375 C 1.847656 -13.675781 1.34375 -15.1875 1.34375 -17.125 C 1.34375 -18.726562 1.816406 -20.148438 2.765625 -21.390625 C 3.722656 -22.640625 5.113281 -23.625 6.9375 -24.34375 C 8.769531 -25.070312 10.96875 -25.4375 13.53125 -25.4375 C 15.34375 -25.4375 17.140625 -25.25 18.921875 -24.875 C 20.703125 -24.507812 22.195312 -23.988281 23.40625 -23.3125 L 20.765625 -17.359375 C 18.554688 -18.585938 16.15625 -19.203125 13.5625 -19.203125 C 12.1875 -19.203125 11.171875 -19.039062 10.515625 -18.71875 C 9.867188 -18.394531 9.546875 -17.972656 9.546875 -17.453125 C 9.546875 -16.859375 9.898438 -16.445312 10.609375 -16.21875 C 11.316406 -15.988281 12.488281 -15.753906 14.125 -15.515625 C 16.1875 -15.203125 17.894531 -14.84375 19.25 -14.4375 C 20.601562 -14.039062 21.78125 -13.3125 22.78125 -12.25 C 23.78125 -11.1875 24.28125 -9.703125 24.28125 -7.796875 C 24.28125 -6.234375 23.800781 -4.828125 22.84375 -3.578125 C 21.894531 -2.328125 20.488281 -1.347656 18.625 -0.640625 C 16.757812 0.0664062 14.519531 0.421875 11.90625 0.421875 Z M 11.90625 0.421875 "/></g></g></g><g fill="#ffffff" fill-opacity="1"><g transform="translate(146.490895, 78.613466)"><g><path d="M 29.265625 -25.015625 L 29.265625 8.953125 L 20.5 8.953125 L 20.5 -2.21875 C 18.800781 -0.457031 16.476562 0.421875 13.53125 0.421875 C 11.25 0.421875 9.175781 -0.109375 7.3125 -1.171875 C 5.445312 -2.234375 3.96875 -3.738281 2.875 -5.6875 C 1.789062 -7.644531 1.25 -9.921875 1.25 -12.515625 C 1.25 -15.097656 1.789062 -17.363281 2.875 -19.3125 C 3.96875 -21.269531 5.445312 -22.78125 7.3125 -23.84375 C 9.175781 -24.90625 11.25 -25.4375 13.53125 -25.4375 C 16.820312 -25.4375 19.28125 -24.46875 20.90625 -22.53125 L 20.90625 -25.015625 Z M 15.375 -6.546875 C 16.90625 -6.546875 18.160156 -7.078125 19.140625 -8.140625 C 20.128906 -9.203125 20.625 -10.660156 20.625 -12.515625 C 20.625 -14.359375 20.128906 -15.8125 19.140625 -16.875 C 18.160156 -17.9375 16.90625 -18.46875 15.375 -18.46875 C 13.832031 -18.46875 12.566406 -17.9375 11.578125 -16.875 C 10.597656 -15.8125 10.109375 -14.359375 10.109375 -12.515625 C 10.109375 -10.660156 10.597656 -9.203125 11.578125 -8.140625 C 12.566406 -7.078125 13.832031 -6.546875 15.375 -6.546875 Z M 15.375 -6.546875 "/></g></g></g><g fill="#ffffff" fill-opacity="1"><g transform="translate(175.524966, 78.613466)"><g><path d="M 29.125 -25.015625 L 29.125 0 L 20.765625 0 L 20.765625 -2.671875 C 19.847656 -1.660156 18.742188 -0.890625 17.453125 -0.359375 C 16.160156 0.160156 14.789062 0.421875 13.34375 0.421875 C 10.113281 0.421875 7.535156 -0.53125 5.609375 -2.4375 C 3.679688 -4.351562 2.71875 -7.21875 2.71875 -11.03125 L 2.71875 -25.015625 L 11.5 -25.015625 L 11.5 -12.46875 C 11.5 -10.582031 11.847656 -9.207031 12.546875 -8.34375 C 13.253906 -7.488281 14.285156 -7.0625 15.640625 -7.0625 C 17.023438 -7.0625 18.15625 -7.546875 19.03125 -8.515625 C 19.914062 -9.484375 20.359375 -10.96875 20.359375 -12.96875 L 20.359375 -25.015625 Z M 29.125 -25.015625 "/></g></g></g><g fill="#ffffff" fill-opacity="1"><g transform="translate(204.420564, 78.613466)"><g><path d="M 2.8125 -25.015625 L 11.578125 -25.015625 L 11.578125 0 L 2.8125 0 Z M 7.203125 -27.78125 C 5.597656 -27.78125 4.300781 -28.226562 3.3125 -29.125 C 2.332031 -30.019531 1.84375 -31.128906 1.84375 -32.453125 C 1.84375 -33.773438 2.332031 -34.878906 3.3125 -35.765625 C 4.300781 -36.660156 5.597656 -37.109375 7.203125 -37.109375 C 8.796875 -37.109375 10.082031 -36.6875 11.0625 -35.84375 C 12.050781 -35 12.546875 -33.914062 12.546875 -32.59375 C 12.546875 -31.207031 12.050781 -30.054688 11.0625 -29.140625 C 10.082031 -28.234375 8.796875 -27.78125 7.203125 -27.78125 Z M 7.203125 -27.78125 "/></g></g></g><g fill="#ffffff" fill-opacity="1"><g transform="translate(215.821488, 78.613466)"><g><path d="M 19.109375 -25.4375 C 22.210938 -25.4375 24.710938 -24.507812 26.609375 -22.65625 C 28.503906 -20.8125 29.453125 -18.03125 29.453125 -14.3125 L 29.453125 0 L 20.671875 0 L 20.671875 -12.875 C 20.671875 -16.289062 19.300781 -18 16.5625 -18 C 15.0625 -18 13.851562 -17.503906 12.9375 -16.515625 C 12.03125 -15.535156 11.578125 -14.0625 11.578125 -12.09375 L 11.578125 0 L 2.8125 0 L 2.8125 -25.015625 L 11.171875 -25.015625 L 11.171875 -22.296875 C 12.148438 -23.304688 13.316406 -24.082031 14.671875 -24.625 C 16.023438 -25.164062 17.503906 -25.4375 19.109375 -25.4375 Z M 19.109375 -25.4375 "/></g></g></g><g fill="#ffffff" fill-opacity="1"><g transform="translate(244.901724, 78.613466)"><g><path d="M 13.484375 -25.4375 C 17.628906 -25.4375 20.796875 -24.488281 22.984375 -22.59375 C 25.171875 -20.695312 26.265625 -17.796875 26.265625 -13.890625 L 26.265625 0 L 18.09375 0 L 18.09375 -3.234375 C 16.832031 -0.796875 14.367188 0.421875 10.703125 0.421875 C 8.765625 0.421875 7.085938 0.0820312 5.671875 -0.59375 C 4.253906 -1.269531 3.1875 -2.1875 2.46875 -3.34375 C 1.75 -4.5 1.390625 -5.816406 1.390625 -7.296875 C 1.390625 -9.660156 2.296875 -11.492188 4.109375 -12.796875 C 5.921875 -14.109375 8.722656 -14.765625 12.515625 -14.765625 L 17.5 -14.765625 C 17.34375 -17.410156 15.570312 -18.734375 12.1875 -18.734375 C 10.988281 -18.734375 9.769531 -18.539062 8.53125 -18.15625 C 7.300781 -17.769531 6.257812 -17.238281 5.40625 -16.5625 L 2.453125 -22.53125 C 3.828125 -23.445312 5.507812 -24.160156 7.5 -24.671875 C 9.488281 -25.179688 11.484375 -25.4375 13.484375 -25.4375 Z M 13.15625 -5.125 C 14.164062 -5.125 15.054688 -5.367188 15.828125 -5.859375 C 16.597656 -6.347656 17.15625 -7.070312 17.5 -8.03125 L 17.5 -10.203125 L 13.703125 -10.203125 C 11.148438 -10.203125 9.875 -9.351562 9.875 -7.65625 C 9.875 -6.894531 10.164062 -6.28125 10.75 -5.8125 C 11.332031 -5.351562 12.132812 -5.125 13.15625 -5.125 Z M 13.15625 -5.125 "/></g></g></g><g fill="#ffffff" fill-opacity="1"><g transform="translate(100.747178, 101.2481)"><g><path d="M 3.171875 -6.46875 L 3.171875 -4.640625 L 6.8125 -4.640625 L 6.8125 -2.828125 L 3.171875 -2.828125 L 3.171875 0 L 0.828125 0 L 0.828125 -8.265625 L 7.3125 -8.265625 L 7.3125 -6.46875 Z M 3.171875 -6.46875 "/></g></g></g><g fill="#ffffff" fill-opacity="1"><g transform="translate(110.353229, 101.2481)"><g><path d="M 6.359375 -1.609375 L 2.875 -1.609375 L 2.21875 0 L -0.171875 0 L 3.484375 -8.265625 L 5.78125 -8.265625 L 9.453125 0 L 7.015625 0 Z M 5.6875 -3.328125 L 4.625 -5.984375 L 3.5625 -3.328125 Z M 5.6875 -3.328125 "/></g></g></g><g fill="#ffffff" fill-opacity="1"><g transform="translate(121.660273, 101.2481)"><g><path d="M 4.953125 0.171875 C 4.085938 0.171875 3.304688 -0.0078125 2.609375 -0.375 C 1.921875 -0.75 1.378906 -1.257812 0.984375 -1.90625 C 0.597656 -2.5625 0.40625 -3.304688 0.40625 -4.140625 C 0.40625 -4.960938 0.597656 -5.695312 0.984375 -6.34375 C 1.378906 -7 1.921875 -7.507812 2.609375 -7.875 C 3.304688 -8.25 4.085938 -8.4375 4.953125 -8.4375 C 5.703125 -8.4375 6.378906 -8.300781 6.984375 -8.03125 C 7.597656 -7.757812 8.101562 -7.375 8.5 -6.875 L 7.015625 -5.53125 C 6.484375 -6.175781 5.832031 -6.5 5.0625 -6.5 C 4.613281 -6.5 4.210938 -6.398438 3.859375 -6.203125 C 3.515625 -6.003906 3.242188 -5.722656 3.046875 -5.359375 C 2.859375 -5.003906 2.765625 -4.597656 2.765625 -4.140625 C 2.765625 -3.671875 2.859375 -3.253906 3.046875 -2.890625 C 3.242188 -2.535156 3.515625 -2.257812 3.859375 -2.0625 C 4.210938 -1.863281 4.613281 -1.765625 5.0625 -1.765625 C 5.832031 -1.765625 6.484375 -2.085938 7.015625 -2.734375 L 8.5 -1.390625 C 8.101562 -0.890625 7.597656 -0.503906 6.984375 -0.234375 C 6.378906 0.0351562 5.703125 0.171875 4.953125 0.171875 Z M 4.953125 0.171875 "/></g></g></g><g fill="#ffffff" fill-opacity="1"><g transform="translate(132.400321, 101.2481)"><g><path d="M 4.640625 0.171875 C 3.410156 0.171875 2.453125 -0.160156 1.765625 -0.828125 C 1.085938 -1.503906 0.75 -2.457031 0.75 -3.6875 L 0.75 -8.265625 L 3.09375 -8.265625 L 3.09375 -3.75 C 3.09375 -2.425781 3.617188 -1.765625 4.671875 -1.765625 C 5.703125 -1.765625 6.21875 -2.425781 6.21875 -3.75 L 6.21875 -8.265625 L 8.53125 -8.265625 L 8.53125 -3.6875 C 8.53125 -2.457031 8.1875 -1.503906 7.5 -0.828125 C 6.820312 -0.160156 5.867188 0.171875 4.640625 0.171875 Z M 4.640625 0.171875 "/></g></g></g><g fill="#ffffff" fill-opacity="1"><g transform="translate(143.707363, 101.2481)"><g><path d="M 0.828125 -8.265625 L 3.171875 -8.265625 L 3.171875 -1.859375 L 7.109375 -1.859375 L 7.109375 0 L 0.828125 0 Z M 0.828125 -8.265625 "/></g></g></g><g fill="#ffffff" fill-opacity="1"><g transform="translate(152.935415, 101.2481)"><g><path d="M 0.828125 -8.265625 L 4.734375 -8.265625 C 5.640625 -8.265625 6.441406 -8.09375 7.140625 -7.75 C 7.847656 -7.414062 8.394531 -6.9375 8.78125 -6.3125 C 9.164062 -5.695312 9.359375 -4.972656 9.359375 -4.140625 C 9.359375 -3.296875 9.164062 -2.5625 8.78125 -1.9375 C 8.394531 -1.320312 7.847656 -0.84375 7.140625 -0.5 C 6.441406 -0.164062 5.640625 0 4.734375 0 L 0.828125 0 Z M 4.640625 -1.859375 C 5.347656 -1.859375 5.914062 -2.0625 6.34375 -2.46875 C 6.78125 -2.875 7 -3.429688 7 -4.140625 C 7 -4.847656 6.78125 -5.398438 6.34375 -5.796875 C 5.914062 -6.203125 5.347656 -6.40625 4.640625 -6.40625 L 3.171875 -6.40625 L 3.171875 -1.859375 Z M 4.640625 -1.859375 "/></g></g></g><g fill="#ffffff" fill-opacity="1"><g transform="translate(164.714961, 101.2481)"><g><path d="M 6.359375 -1.609375 L 2.875 -1.609375 L 2.21875 0 L -0.171875 0 L 3.484375 -8.265625 L 5.78125 -8.265625 L 9.453125 0 L 7.015625 0 Z M 5.6875 -3.328125 L 4.625 -5.984375 L 3.5625 -3.328125 Z M 5.6875 -3.328125 "/></g></g></g><g fill="#ffffff" fill-opacity="1"><g transform="translate(176.022003, 101.2481)"><g><path d="M 0.828125 -8.265625 L 4.734375 -8.265625 C 5.640625 -8.265625 6.441406 -8.09375 7.140625 -7.75 C 7.847656 -7.414062 8.394531 -6.9375 8.78125 -6.3125 C 9.164062 -5.695312 9.359375 -4.972656 9.359375 -4.140625 C 9.359375 -3.296875 9.164062 -2.5625 8.78125 -1.9375 C 8.394531 -1.320312 7.847656 -0.84375 7.140625 -0.5 C 6.441406 -0.164062 5.640625 0 4.734375 0 L 0.828125 0 Z M 4.640625 -1.859375 C 5.347656 -1.859375 5.914062 -2.0625 6.34375 -2.46875 C 6.78125 -2.875 7 -3.429688 7 -4.140625 C 7 -4.847656 6.78125 -5.398438 6.34375 -5.796875 C 5.914062 -6.203125 5.347656 -6.40625 4.640625 -6.40625 L 3.171875 -6.40625 L 3.171875 -1.859375 Z M 4.640625 -1.859375 "/></g></g></g><g fill="#ffffff" fill-opacity="1"><g transform="translate(187.801549, 101.2481)"><g><path d="M 7.46875 -1.8125 L 7.46875 0 L 0.828125 0 L 0.828125 -8.265625 L 7.3125 -8.265625 L 7.3125 -6.46875 L 3.140625 -6.46875 L 3.140625 -5.0625 L 6.8125 -5.0625 L 6.8125 -3.3125 L 3.140625 -3.3125 L 3.140625 -1.8125 Z M 7.46875 -1.8125 "/></g></g></g></svg>